<mxfile host="app.diagrams.net" modified="2024-01-12T10:37:54.671Z" agent="Mozilla/5.0 (Windows NT 10.0; Win64; x64; rv:121.0) Gecko/20100101 Firefox/121.0" etag="7tFW1olbsqP_3aFYJDD6" version="22.1.17" type="device">
  <diagram name="Page-1" id="M-o2IBnCFPvLG_mW4Qea">
    <mxGraphModel dx="1434" dy="782" grid="1" gridSize="10" guides="1" tooltips="1" connect="1" arrows="1" fold="1" page="1" pageScale="1" pageWidth="1200" pageHeight="1600" math="0" shadow="0">
      <root>
        <mxCell id="0" />
        <mxCell id="1" parent="0" />
        <mxCell id="mb3DZciCNYZfoAasAtpL-2" value="Adventure Game" style="rounded=0;whiteSpace=wrap;html=1;fontSize=17;fontFamily=Courier New;" parent="1" vertex="1">
          <mxGeometry x="340" width="120" height="40" as="geometry" />
        </mxCell>
        <mxCell id="mb3DZciCNYZfoAasAtpL-4" value="Get Movement" style="rounded=0;whiteSpace=wrap;html=1;fontFamily=Courier New;fontSize=17;" parent="1" vertex="1">
          <mxGeometry x="120" y="120" width="120" height="40" as="geometry" />
        </mxCell>
        <mxCell id="mb3DZciCNYZfoAasAtpL-5" value="" style="endArrow=none;html=1;rounded=0;entryX=0.5;entryY=1;entryDx=0;entryDy=0;exitX=0.5;exitY=0;exitDx=0;exitDy=0;" parent="1" source="mb3DZciCNYZfoAasAtpL-4" target="mb3DZciCNYZfoAasAtpL-2" edge="1">
          <mxGeometry width="50" height="50" relative="1" as="geometry">
            <mxPoint x="70" y="260" as="sourcePoint" />
            <mxPoint x="120" y="210" as="targetPoint" />
          </mxGeometry>
        </mxCell>
        <mxCell id="mb3DZciCNYZfoAasAtpL-7" value="Get vertical axis" style="rounded=0;whiteSpace=wrap;html=1;fontFamily=Courier New;fontSize=16;" parent="1" vertex="1">
          <mxGeometry y="200" width="120" height="40" as="geometry" />
        </mxCell>
        <mxCell id="mb3DZciCNYZfoAasAtpL-8" value="Get horizontal axis" style="rounded=0;whiteSpace=wrap;html=1;fontFamily=Courier New;fontSize=14;" parent="1" vertex="1">
          <mxGeometry x="240" y="200" width="120" height="40" as="geometry" />
        </mxCell>
        <mxCell id="mb3DZciCNYZfoAasAtpL-9" value="" style="endArrow=none;html=1;rounded=0;entryX=0.5;entryY=1;entryDx=0;entryDy=0;exitX=0.45;exitY=-0.025;exitDx=0;exitDy=0;exitPerimeter=0;" parent="1" source="mb3DZciCNYZfoAasAtpL-7" target="mb3DZciCNYZfoAasAtpL-4" edge="1">
          <mxGeometry width="50" height="50" relative="1" as="geometry">
            <mxPoint x="440" y="380" as="sourcePoint" />
            <mxPoint x="490" y="330" as="targetPoint" />
          </mxGeometry>
        </mxCell>
        <mxCell id="mb3DZciCNYZfoAasAtpL-10" value="" style="endArrow=none;html=1;rounded=0;entryX=0.5;entryY=0;entryDx=0;entryDy=0;" parent="1" target="mb3DZciCNYZfoAasAtpL-8" edge="1">
          <mxGeometry width="50" height="50" relative="1" as="geometry">
            <mxPoint x="170" y="160" as="sourcePoint" />
            <mxPoint x="490" y="330" as="targetPoint" />
          </mxGeometry>
        </mxCell>
        <mxCell id="mb3DZciCNYZfoAasAtpL-12" value="&lt;div&gt;Move Player&lt;/div&gt;" style="rounded=0;whiteSpace=wrap;html=1;fontFamily=Courier New;fontSize=17;" parent="1" vertex="1">
          <mxGeometry x="560" y="120" width="120" height="40" as="geometry" />
        </mxCell>
        <mxCell id="mb3DZciCNYZfoAasAtpL-13" value="Check collisions" style="rounded=0;whiteSpace=wrap;html=1;fontFamily=Courier New;fontSize=17;" parent="1" vertex="1">
          <mxGeometry x="440" y="200" width="120" height="40" as="geometry" />
        </mxCell>
        <mxCell id="mb3DZciCNYZfoAasAtpL-14" value="&lt;div&gt;Move Player&lt;/div&gt;" style="rounded=0;whiteSpace=wrap;html=1;fontFamily=Courier New;fontSize=17;" parent="1" vertex="1">
          <mxGeometry x="680" y="200" width="120" height="40" as="geometry" />
        </mxCell>
        <mxCell id="mb3DZciCNYZfoAasAtpL-15" value="" style="endArrow=none;html=1;rounded=0;entryX=0.5;entryY=0;entryDx=0;entryDy=0;exitX=0.5;exitY=1;exitDx=0;exitDy=0;" parent="1" source="mb3DZciCNYZfoAasAtpL-12" target="mb3DZciCNYZfoAasAtpL-13" edge="1">
          <mxGeometry width="50" height="50" relative="1" as="geometry">
            <mxPoint x="440" y="380" as="sourcePoint" />
            <mxPoint x="490" y="330" as="targetPoint" />
          </mxGeometry>
        </mxCell>
        <mxCell id="mb3DZciCNYZfoAasAtpL-16" value="" style="endArrow=none;html=1;rounded=0;entryX=0.5;entryY=1;entryDx=0;entryDy=0;exitX=0.5;exitY=0;exitDx=0;exitDy=0;" parent="1" source="mb3DZciCNYZfoAasAtpL-14" target="mb3DZciCNYZfoAasAtpL-12" edge="1">
          <mxGeometry width="50" height="50" relative="1" as="geometry">
            <mxPoint x="440" y="380" as="sourcePoint" />
            <mxPoint x="490" y="330" as="targetPoint" />
          </mxGeometry>
        </mxCell>
        <mxCell id="mb3DZciCNYZfoAasAtpL-17" value="" style="endArrow=none;html=1;rounded=0;entryX=0.5;entryY=1;entryDx=0;entryDy=0;exitX=0.5;exitY=0;exitDx=0;exitDy=0;" parent="1" source="mb3DZciCNYZfoAasAtpL-12" target="mb3DZciCNYZfoAasAtpL-2" edge="1">
          <mxGeometry width="50" height="50" relative="1" as="geometry">
            <mxPoint x="440" y="380" as="sourcePoint" />
            <mxPoint x="490" y="330" as="targetPoint" />
          </mxGeometry>
        </mxCell>
        <mxCell id="mb3DZciCNYZfoAasAtpL-20" value="&lt;div&gt;Check wall&lt;/div&gt;" style="rounded=0;whiteSpace=wrap;html=1;fontFamily=Courier New;fontSize=17;" parent="1" vertex="1">
          <mxGeometry x="390" y="280" width="80" height="40" as="geometry" />
        </mxCell>
        <mxCell id="mb3DZciCNYZfoAasAtpL-21" value="&lt;div&gt;Check enemy&lt;/div&gt;" style="rounded=0;whiteSpace=wrap;html=1;fontFamily=Courier New;fontSize=17;" parent="1" vertex="1">
          <mxGeometry x="410" y="350" width="80" height="40" as="geometry" />
        </mxCell>
        <mxCell id="mb3DZciCNYZfoAasAtpL-22" value="&lt;div&gt;Check win&lt;/div&gt;" style="rounded=0;whiteSpace=wrap;html=1;fontFamily=Courier New;fontSize=17;" parent="1" vertex="1">
          <mxGeometry x="530" y="280" width="80" height="40" as="geometry" />
        </mxCell>
        <mxCell id="mb3DZciCNYZfoAasAtpL-23" value="&lt;div&gt;Check other&lt;/div&gt;" style="rounded=0;whiteSpace=wrap;html=1;fontFamily=Courier New;fontSize=17;" parent="1" vertex="1">
          <mxGeometry x="510" y="350" width="80" height="40" as="geometry" />
        </mxCell>
        <mxCell id="mb3DZciCNYZfoAasAtpL-24" value="" style="endArrow=none;html=1;rounded=0;entryX=0.45;entryY=1;entryDx=0;entryDy=0;entryPerimeter=0;exitX=0.5;exitY=0;exitDx=0;exitDy=0;" parent="1" source="mb3DZciCNYZfoAasAtpL-20" target="mb3DZciCNYZfoAasAtpL-13" edge="1">
          <mxGeometry width="50" height="50" relative="1" as="geometry">
            <mxPoint x="440" y="320" as="sourcePoint" />
            <mxPoint x="490" y="270" as="targetPoint" />
          </mxGeometry>
        </mxCell>
        <mxCell id="mb3DZciCNYZfoAasAtpL-25" value="" style="endArrow=none;html=1;rounded=0;entryX=0.5;entryY=1;entryDx=0;entryDy=0;exitX=0.5;exitY=0;exitDx=0;exitDy=0;" parent="1" source="mb3DZciCNYZfoAasAtpL-22" target="mb3DZciCNYZfoAasAtpL-13" edge="1">
          <mxGeometry width="50" height="50" relative="1" as="geometry">
            <mxPoint x="440" y="320" as="sourcePoint" />
            <mxPoint x="490" y="270" as="targetPoint" />
          </mxGeometry>
        </mxCell>
        <mxCell id="mb3DZciCNYZfoAasAtpL-26" value="" style="endArrow=none;html=1;rounded=0;entryX=0.5;entryY=1;entryDx=0;entryDy=0;exitX=0.75;exitY=0;exitDx=0;exitDy=0;" parent="1" source="mb3DZciCNYZfoAasAtpL-21" target="mb3DZciCNYZfoAasAtpL-13" edge="1">
          <mxGeometry width="50" height="50" relative="1" as="geometry">
            <mxPoint x="440" y="320" as="sourcePoint" />
            <mxPoint x="490" y="270" as="targetPoint" />
          </mxGeometry>
        </mxCell>
        <mxCell id="mb3DZciCNYZfoAasAtpL-27" value="" style="endArrow=none;html=1;rounded=0;entryX=0.5;entryY=1;entryDx=0;entryDy=0;exitX=0.25;exitY=0;exitDx=0;exitDy=0;" parent="1" source="mb3DZciCNYZfoAasAtpL-23" target="mb3DZciCNYZfoAasAtpL-13" edge="1">
          <mxGeometry width="50" height="50" relative="1" as="geometry">
            <mxPoint x="440" y="320" as="sourcePoint" />
            <mxPoint x="490" y="270" as="targetPoint" />
          </mxGeometry>
        </mxCell>
        <mxCell id="mb3DZciCNYZfoAasAtpL-28" value="&lt;div style=&quot;font-size: 18px;&quot;&gt;Display map&lt;/div&gt;" style="rounded=0;whiteSpace=wrap;html=1;fontFamily=Courier New;fontSize=18;" parent="1" vertex="1">
          <mxGeometry x="840" y="120" width="120" height="40" as="geometry" />
        </mxCell>
        <mxCell id="mb3DZciCNYZfoAasAtpL-30" value="" style="endArrow=none;html=1;rounded=0;exitX=0.5;exitY=0;exitDx=0;exitDy=0;" parent="1" source="mb3DZciCNYZfoAasAtpL-28" edge="1">
          <mxGeometry width="50" height="50" relative="1" as="geometry">
            <mxPoint x="850" y="270" as="sourcePoint" />
            <mxPoint x="400" y="40" as="targetPoint" />
          </mxGeometry>
        </mxCell>
        <mxCell id="H5rAe8IUhhllkF65k6ZH-2" value="Change x position by x" style="rounded=0;whiteSpace=wrap;html=1;fontFamily=Courier New;" vertex="1" parent="1">
          <mxGeometry x="640" y="280" width="80" height="40" as="geometry" />
        </mxCell>
        <mxCell id="H5rAe8IUhhllkF65k6ZH-3" value="Change y position by y" style="rounded=0;whiteSpace=wrap;html=1;fontFamily=Courier New;" vertex="1" parent="1">
          <mxGeometry x="760" y="280" width="80" height="40" as="geometry" />
        </mxCell>
        <mxCell id="H5rAe8IUhhllkF65k6ZH-4" value="" style="endArrow=none;html=1;rounded=0;entryX=0.5;entryY=1;entryDx=0;entryDy=0;" edge="1" parent="1" target="mb3DZciCNYZfoAasAtpL-14">
          <mxGeometry width="50" height="50" relative="1" as="geometry">
            <mxPoint x="680" y="280" as="sourcePoint" />
            <mxPoint x="730" y="230" as="targetPoint" />
          </mxGeometry>
        </mxCell>
        <mxCell id="H5rAe8IUhhllkF65k6ZH-5" value="" style="endArrow=none;html=1;rounded=0;exitX=0.5;exitY=1;exitDx=0;exitDy=0;" edge="1" parent="1" source="mb3DZciCNYZfoAasAtpL-14">
          <mxGeometry width="50" height="50" relative="1" as="geometry">
            <mxPoint x="750" y="330" as="sourcePoint" />
            <mxPoint x="800" y="280" as="targetPoint" />
          </mxGeometry>
        </mxCell>
        <mxCell id="H5rAe8IUhhllkF65k6ZH-6" value="&lt;font style=&quot;font-size: 17px;&quot;&gt;Print each line&lt;br style=&quot;font-size: 17px;&quot;&gt;&lt;/font&gt;" style="rounded=0;whiteSpace=wrap;html=1;fontFamily=Courier New;fontSize=17;" vertex="1" parent="1">
          <mxGeometry x="840" y="200" width="120" height="40" as="geometry" />
        </mxCell>
        <mxCell id="H5rAe8IUhhllkF65k6ZH-7" value="Replace chars with fancy" style="rounded=0;whiteSpace=wrap;html=1;fontFamily=Courier New;fontSize=11;" vertex="1" parent="1">
          <mxGeometry x="860" y="280" width="80" height="40" as="geometry" />
        </mxCell>
        <mxCell id="H5rAe8IUhhllkF65k6ZH-8" value="" style="endArrow=none;html=1;rounded=0;" edge="1" parent="1" source="H5rAe8IUhhllkF65k6ZH-6">
          <mxGeometry width="50" height="50" relative="1" as="geometry">
            <mxPoint x="900" y="250" as="sourcePoint" />
            <mxPoint x="900" y="280" as="targetPoint" />
          </mxGeometry>
        </mxCell>
        <mxCell id="H5rAe8IUhhllkF65k6ZH-9" value="" style="endArrow=none;html=1;rounded=0;exitX=0.5;exitY=1;exitDx=0;exitDy=0;entryX=0.5;entryY=0;entryDx=0;entryDy=0;" edge="1" parent="1" source="mb3DZciCNYZfoAasAtpL-28" target="H5rAe8IUhhllkF65k6ZH-6">
          <mxGeometry width="50" height="50" relative="1" as="geometry">
            <mxPoint x="910" y="250" as="sourcePoint" />
            <mxPoint x="910" y="290" as="targetPoint" />
          </mxGeometry>
        </mxCell>
      </root>
    </mxGraphModel>
  </diagram>
</mxfile>
